<svg xmlns="http://www.w3.org/2000/svg" xmlns:svg="http://www.w3.org/2000/svg" xmlns:xlink="http://www.w3.org/1999/xlink" version="1.0" height="1220.000000000001pt" width="810pt" viewBox="365 -33.000000000000114 818 1226.000000000001" ><defs><style type="text/css">
            @font-face {
                font-family: 'lt_regular';
                src: url('https://app.creately.com/diagram/assets/fonts/lato/lt-regular-webfont.woff2') format('woff2'),
                    url('https://app.creately.com/diagram/assets/fonts/lato/lt-regular-webfont.woff') format('woff');
                font-weight: normal;
                font-style: normal;
            }
            @font-face {
                font-family: 'noto_regular';
                src: url('https://app.creately.com/diagram/assets/fonts/noto/noto-regular.woff') format('woff'),
                     url('https://app.creately.com/diagram/assets/fonts/noto/noto-regular.woff2') format('woff2');
                font-weight: normal;
                font-style: normal;
            }
        p {
            margin: 0;
        }
        </style></defs><defs><style>
            span{ display: inline-block; }
        </style></defs><g id="vsFJC7I7CL5"><g transform="translate(370 -30.000000000000014) rotate(-7.016709298534886e-15)"><rect x="0" y="0" width="809.9999999999998" height="1220.0000000000007" fill="rgb(233,228,232)" stroke="#E9E4E8" stroke-width="2" stroke-linecap="round" stroke-linejoin="round" stroke-dasharray="0 0"/></g><g transform="translate(775, 571.5000000000002) rotate(0, 0, 8.5)" width="0" height="17"><text text-decoration="none" x="0" fill="#4b4b4b" font-size="10pt" font-family="noto_regular"  y="17"></text></g></g><g id="zsh3PLotcEm"><g transform="translate(730.0000000000001 -7.105427357601002e-15)"><ellipse cx="20" cy="20" rx="20" ry="20" fill="rgb(45,148,228)" stroke="#2D94E4" stroke-width="2" stroke-linecap="round" stroke-linejoin="round" stroke-dasharray="0 0"/></g></g><g id="1uos4lpeikc"><g><path d="M 750,40 L 750,50 Q 750,50.000000000000114 750,60 Q 749.9999999999998,69.99999999999966 749.9999999999998,70 L 750,80" fill="none" stroke="#7E7E7E" stroke-width="2" stroke-linecap="round" stroke-linejoin="round"/><path d="M 750,80 L 755.75,71.30434782608695 L 744.25,71.30434782608695 Z" fill="rgb(126,126,126)" stroke="#7E7E7E" stroke-width="2" stroke-linecap="round" stroke-linejoin="round"/></g></g><g id="iWNt76cacrs"><g transform="translate(699.9999999999997 80)"><path d="M 20,40 L 20,40 L 20,40 A 20 20 0 0 1 0 20.000000000000004 L 0,20 L 0,20.000000000000004 A 20 20 0 0 1 20 0 L 80,0 L 80,0 L 80,0 A 20 20 0 0 1 100 20 L 100,20 L 100,20 A 20 20 0 0 1 80 40 L 20,40 Z" fill="rgb(236,74,66)" stroke="#EC4A42" stroke-width="2" stroke-linecap="round" stroke-linejoin="round" stroke-dasharray="0 0"/></g><g transform="translate(724.9999999999997, 90.5) rotate(0, 25, 9.5)" width="50" height="19"><text text-decoration="none" x="0.5" fill="#ffffff" font-size="10pt" font-family="lt_regular"  y="17">Inquiries</text><text text-decoration="none" x="49.5" fill="#4b4b4b" font-size="10pt" font-family="noto_regular"  y="17"></text></g></g><g id="O2g6Boc66kc"><mask id="7e414" x="731" y="106" width="33" height="78" maskUnits="userSpaceOnUse"><rect x="731" y="106" width="33" height="78" fill="white" /><rect x="724.4999999999998" y="132.5" width="46" height="25" fill="black" /></mask><g mask="url(#7e414)"><path d="M 750,120 L 749.9999999999998,135 Q 749.9999999999998,137.99999999999966 747,145 Q 744.9999999999999,152.99999999999977 744.9999999999999,155 L 745,170" fill="none" stroke="#7E7E7E" stroke-width="2" stroke-linecap="round" stroke-linejoin="round"/><path d="M 745,170 L 750.75,161.30434782608697 L 739.25,161.30434782608697 Z" fill="rgb(126,126,126)" stroke="#7E7E7E" stroke-width="2" stroke-linecap="round" stroke-linejoin="round"/></g><g transform="translate(727.4999999999998, 135.5)" width="40" height="19"><text text-decoration="none" x="1" fill="#4b4b4b" font-size="10pt" font-family="lt_regular"  y="17">Librian</text><text text-decoration="none" x="39" fill="#4b4b4b" font-size="10pt" font-family="noto_regular"  y="17"></text></g></g><g id="Meft5jQYb01"><g transform="translate(694.9999999999998 169.99999999999997)"><path d="M 20,40 L 20,40 L 20,40 A 20 20 0 0 1 0 20.000000000000004 L 0,20 L 0,20.000000000000004 A 20 20 0 0 1 20 0 L 80,0 L 80,0 L 80,0 A 20 20 0 0 1 100 20 L 100,20 L 100,20 A 20 20 0 0 1 80 40 L 20,40 Z" fill="rgb(236,74,66)" stroke="#EC4A42" stroke-width="2" stroke-linecap="round" stroke-linejoin="round" stroke-dasharray="0 0"/></g><g transform="translate(714.4999999999998, 171.49999999999997) rotate(0, 30.5, 18.5)" width="61" height="37"><text text-decoration="none" x="4" fill="#ffffff" font-size="10pt" font-family="lt_regular"  y="14">Checking&#160;</text><text text-decoration="none" x="1" fill="#ffffff" font-size="10pt" font-family="lt_regular"  y="36">availability</text><text text-decoration="none" x="60" fill="#4b4b4b" font-size="10pt" font-family="noto_regular"  y="36"></text></g></g><g id="ncNsWw2oLGG"><g transform="translate(719.9999999999998 269.99999999999994) rotate(-7.0167092985348775e-15)"><path d="M 24.999999999999993,0 L 0,20 L 24.999999999999993,40 L 49.999999999999986,20 L 24.999999999999993,0 Z" fill="rgb(247,202,24)" stroke="#F7CA18" stroke-width="2" stroke-linecap="round" stroke-linejoin="round" stroke-dasharray="0 0"/></g><g transform="translate(744.9999999999998, 281.49999999999994) rotate(0, 0, 8.5)" width="0" height="17"><text text-decoration="none" x="0" fill="#4b4b4b" font-size="10pt" font-family="noto_regular"  y="17"></text></g></g><g id="2U6wY4JYUEh"><g><path d="M 745,210 L 745,270" fill="none" stroke="#7E7E7E" stroke-width="2" stroke-linecap="round" stroke-linejoin="round"/><path d="M 745,270 L 750.75,261.30434782608694 L 739.25,261.30434782608694 Z" fill="rgb(126,126,126)" stroke="#7E7E7E" stroke-width="2" stroke-linecap="round" stroke-linejoin="round"/></g></g><g id="bicp5xsPfUA"><g transform="translate(910.0000000000001 270)"><path d="M 20,40 L 20,40 L 20,40 A 20 20 0 0 1 0 20.000000000000004 L 0,20 L 0,20.000000000000004 A 20 20 0 0 1 20 0 L 80,0 L 80,0 L 80,0 A 20 20 0 0 1 100 20 L 100,20 L 100,20 A 20 20 0 0 1 80 40 L 20,40 Z" fill="rgb(236,74,66)" stroke="#EC4A42" stroke-width="2" stroke-linecap="round" stroke-linejoin="round" stroke-dasharray="0 0"/></g><g transform="translate(933.0000000000001, 271.5) rotate(0, 27, 18.5)" width="54" height="37"><text text-decoration="none" x="1.5" fill="#ffffff" font-size="10pt" font-family="lt_regular"  y="14">Book&#160;</text><text text-decoration="none" x="33.5" fill="#ffffff" font-size="10pt" font-family="lt_regular"  y="14">not&#160;</text><text text-decoration="none" x="3" fill="#ffffff" font-size="10pt" font-family="lt_regular"  y="36">available</text><text text-decoration="none" x="51" fill="#4b4b4b" font-size="10pt" font-family="noto_regular"  y="36"></text></g></g><g id="F79iHrnV5ZT"><mask id="d604a" x="756" y="276" width="168" height="28" maskUnits="userSpaceOnUse"><rect x="756" y="276" width="168" height="28" fill="white" /><rect x="798.5" y="277.5" width="83" height="25" fill="black" /></mask><g mask="url(#d604a)"><path d="M 770,290 L 830,289.99999999999994 Q 830,289.99999999999994 840,290 Q 850,290 850,290 L 910,290" fill="none" stroke="#7E7E7E" stroke-width="2" stroke-linecap="round" stroke-linejoin="round"/><path d="M 910,290 L 901.304347826087,284.25 L 901.304347826087,295.75 Z" fill="rgb(126,126,126)" stroke="#7E7E7E" stroke-width="2" stroke-linecap="round" stroke-linejoin="round"/></g><g transform="translate(801.5, 280.5)" width="77" height="19"><text text-decoration="none" x="2" fill="#4b4b4b" font-size="10pt" font-family="lt_regular"  y="17">Not&#160;</text><text text-decoration="none" x="27" fill="#4b4b4b" font-size="10pt" font-family="lt_regular"  y="17">available</text><text text-decoration="none" x="75" fill="#4b4b4b" font-size="10pt" font-family="noto_regular"  y="17"></text></g></g><g id="qqDaOqOsHVM"><g><path d="M 1010,290 L 1020,290" fill="none" stroke="#7E7E7E" stroke-width="2" stroke-linecap="round" stroke-linejoin="round"/></g></g><g id="egVFrWCASKa"><g transform="translate(1110 270)"><ellipse cx="20" cy="20" rx="20" ry="20" fill="rgb(45,148,228)" stroke="#2D94E4" stroke-width="2" stroke-linecap="round" stroke-linejoin="round" stroke-dasharray="0 0"/></g></g><g id="GumzqaMQgST"><g transform="translate(694.9999999999998 380)"><path d="M 20,40 L 20,40 L 20,40 A 20 20 0 0 1 0 20.000000000000004 L 0,20 L 0,20.000000000000004 A 20 20 0 0 1 20 0 L 80,0 L 80,0 L 80,0 A 20 20 0 0 1 100 20 L 100,20 L 100,20 A 20 20 0 0 1 80 40 L 20,40 Z" fill="rgb(236,74,66)" stroke="#EC4A42" stroke-width="2" stroke-linecap="round" stroke-linejoin="round" stroke-dasharray="0 0"/></g><g transform="translate(720.9999999999998, 381.5) rotate(0, 24, 18.5)" width="48" height="37"><text text-decoration="none" x="1" fill="#ffffff" font-size="10pt" font-family="lt_regular"  y="14">Validate&#160;</text><text text-decoration="none" x="0" fill="#ffffff" font-size="10pt" font-family="lt_regular"  y="36">member</text><text text-decoration="none" x="48" fill="#4b4b4b" font-size="10pt" font-family="noto_regular"  y="36"></text></g></g><g id="QOqqh5YXEIs"><g transform="translate(719.9999999999998 479.99999999999994) rotate(-7.0167092985348775e-15)"><path d="M 24.999999999999993,0 L 0,20 L 24.999999999999993,40 L 49.999999999999986,20 L 24.999999999999993,0 Z" fill="rgb(247,202,24)" stroke="#F7CA18" stroke-width="2" stroke-linecap="round" stroke-linejoin="round" stroke-dasharray="0 0"/></g><g transform="translate(744.9999999999998, 491.5) rotate(0, 0, 8.5)" width="0" height="17"><text text-decoration="none" x="0" fill="#4b4b4b" font-size="10pt" font-family="noto_regular"  y="17"></text></g></g><g id="YFrMTKZhcDi"><g transform="translate(879.9999999999999 480)"><path d="M 20,40 L 20,40 L 20,40 A 20 20 0 0 1 0 20.000000000000004 L 0,20 L 0,20.000000000000004 A 20 20 0 0 1 20 0 L 80,0 L 80,0 L 80,0 A 20 20 0 0 1 100 20 L 100,20 L 100,20 A 20 20 0 0 1 80 40 L 20,40 Z" fill="rgb(236,74,66)" stroke="#EC4A42" stroke-width="2" stroke-linecap="round" stroke-linejoin="round" stroke-dasharray="0 0"/></g><g transform="translate(902.9999999999999, 481.5) rotate(0, 27, 18.5)" width="54" height="37"><text text-decoration="none" x="1.5" fill="#ffffff" font-size="10pt" font-family="lt_regular"  y="14">Book&#160;</text><text text-decoration="none" x="33.5" fill="#ffffff" font-size="10pt" font-family="lt_regular"  y="14">not&#160;</text><text text-decoration="none" x="3" fill="#ffffff" font-size="10pt" font-family="lt_regular"  y="36">available</text><text text-decoration="none" x="51" fill="#4b4b4b" font-size="10pt" font-family="noto_regular"  y="36"></text></g></g><g id="yeRXNGUMv8n"><g transform="translate(664.9999999999998 590) rotate(-7.0167092985348775e-15)"><path d="M 20,40 L 20,40 L 20,40 A 20 20 0 0 1 0 20.000000000000004 L 0,20 L 0,20.000000000000004 A 20 20 0 0 1 20 0 L 140,0 L 140,0 L 140,0 A 20 20 0 0 1 160 20 L 160,20 L 160,20 A 20 20 0 0 1 140 40 L 20,40 Z" fill="rgb(236,74,66)" stroke="#EC4A42" stroke-width="2" stroke-linecap="round" stroke-linejoin="round" stroke-dasharray="0 0"/></g><g transform="translate(691.9999999999998, 591.5) rotate(0, 53, 18.5)" width="106" height="37"><text text-decoration="none" x="3.5" fill="#ffffff" font-size="10pt" font-family="lt_regular"  y="14">Number&#160;</text><text text-decoration="none" x="53.5" fill="#ffffff" font-size="10pt" font-family="lt_regular"  y="14">of&#160;</text><text text-decoration="none" x="68.5" fill="#ffffff" font-size="10pt" font-family="lt_regular"  y="14">books&#160;</text><text text-decoration="none" x="2" fill="#ffffff" font-size="10pt" font-family="lt_regular"  y="36">issued&#160;</text><text text-decoration="none" x="41" fill="#ffffff" font-size="10pt" font-family="lt_regular"  y="36">to&#160;</text><text text-decoration="none" x="56" fill="#ffffff" font-size="10pt" font-family="lt_regular"  y="36">member</text><text text-decoration="none" x="104" fill="#4b4b4b" font-size="10pt" font-family="noto_regular"  y="36"></text></g></g><g id="Kb7xNGi5uDK"><g transform="translate(719.9999999999999 682.5) rotate(-7.016709298534876e-15)"><path d="M 24.999999999999993,0 L 0,20 L 24.999999999999993,40 L 49.999999999999986,20 L 24.999999999999993,0 Z" fill="rgb(247,202,24)" stroke="#F7CA18" stroke-width="2" stroke-linecap="round" stroke-linejoin="round" stroke-dasharray="0 0"/></g><g transform="translate(744.9999999999999, 694) rotate(0, 0, 8.5)" width="0" height="17"><text text-decoration="none" x="0" fill="#4b4b4b" font-size="10pt" font-family="noto_regular"  y="17"></text></g></g><g id="sEpgoR5Zzxa"><g transform="translate(430 682.5)"><path d="M 20,40 L 20,40 L 20,40 A 20 20 0 0 1 0 20.000000000000004 L 0,20 L 0,20.000000000000004 A 20 20 0 0 1 20 0 L 80,0 L 80,0 L 80,0 A 20 20 0 0 1 100 20 L 100,20 L 100,20 A 20 20 0 0 1 80 40 L 20,40 Z" fill="rgb(236,74,66)" stroke="#EC4A42" stroke-width="2" stroke-linecap="round" stroke-linejoin="round" stroke-dasharray="0 0"/></g><g transform="translate(453, 684) rotate(0, 27, 18.5)" width="54" height="37"><text text-decoration="none" x="1.5" fill="#ffffff" font-size="10pt" font-family="lt_regular"  y="14">Book&#160;</text><text text-decoration="none" x="33.5" fill="#ffffff" font-size="10pt" font-family="lt_regular"  y="14">not&#160;</text><text text-decoration="none" x="9" fill="#ffffff" font-size="10pt" font-family="lt_regular"  y="36">issued</text><text text-decoration="none" x="45" fill="#4b4b4b" font-size="10pt" font-family="noto_regular"  y="36"></text></g></g><g id="BsXiGRPQyR8"><g transform="translate(694.9999999999998 780)"><path d="M 20,40 L 20,40 L 20,40 A 20 20 0 0 1 0 20.000000000000004 L 0,20 L 0,20.000000000000004 A 20 20 0 0 1 20 0 L 80,0 L 80,0 L 80,0 A 20 20 0 0 1 100 20 L 100,20 L 100,20 A 20 20 0 0 1 80 40 L 20,40 Z" fill="rgb(236,74,66)" stroke="#EC4A42" stroke-width="2" stroke-linecap="round" stroke-linejoin="round" stroke-dasharray="0 0"/></g><g transform="translate(713.4999999999998, 790.5) rotate(0, 31.5, 9.5)" width="63" height="19"><text text-decoration="none" x="1" fill="#ffffff" font-size="10pt" font-family="lt_regular"  y="17">Issue&#160;</text><text text-decoration="none" x="34" fill="#ffffff" font-size="10pt" font-family="lt_regular"  y="17">book</text><text text-decoration="none" x="62" fill="#4b4b4b" font-size="10pt" font-family="noto_regular"  y="17"></text></g></g><g id="bbgBoq8P1KO"><g transform="translate(664.9999999999998 890) rotate(-7.016709298534876e-15)"><path d="M 20,40 L 20,40 L 20,40 A 20 20 0 0 1 0 20.000000000000004 L 0,20 L 0,20.000000000000004 A 20 20 0 0 1 20 0 L 139.99999999999991,0 L 139.99999999999991,0 L 139.99999999999991,0 A 20 20 0 0 1 159.99999999999991 20 L 159.99999999999991,20 L 159.99999999999991,20 A 20 20 0 0 1 139.99999999999991 40 L 20,40 Z" fill="rgb(236,74,66)" stroke="#EC4A42" stroke-width="2" stroke-linecap="round" stroke-linejoin="round" stroke-dasharray="0 0"/></g><g transform="translate(677.9999999999998, 891.5) rotate(0, 67, 18.5)" width="134" height="37"><text text-decoration="none" x="3" fill="#ffffff" font-size="10pt" font-family="lt_regular"  y="14">add&#160;</text><text text-decoration="none" x="26" fill="#ffffff" font-size="10pt" font-family="lt_regular"  y="14">member,&#160;</text><text text-decoration="none" x="80" fill="#ffffff" font-size="10pt" font-family="lt_regular"  y="14">book&#160;</text><text text-decoration="none" x="111" fill="#ffffff" font-size="10pt" font-family="lt_regular"  y="14">and&#160;</text><text text-decoration="none" x="32.5" fill="#ffffff" font-size="10pt" font-family="lt_regular"  y="36">issue&#160;</text><text text-decoration="none" x="64.5" fill="#ffffff" font-size="10pt" font-family="lt_regular"  y="36">details</text><text text-decoration="none" x="101.5" fill="#4b4b4b" font-size="10pt" font-family="noto_regular"  y="36"></text></g></g><g id="4mTyNWDN8Jd"><g transform="translate(694.9999999999998 990)"><path d="M 20,40 L 20,40 L 20,40 A 20 20 0 0 1 0 20.000000000000004 L 0,20 L 0,20.000000000000004 A 20 20 0 0 1 20 0 L 80,0 L 80,0 L 80,0 A 20 20 0 0 1 100 20 L 100,20 L 100,20 A 20 20 0 0 1 80 40 L 20,40 Z" fill="rgb(236,74,66)" stroke="#EC4A42" stroke-width="2" stroke-linecap="round" stroke-linejoin="round" stroke-dasharray="0 0"/></g><g transform="translate(706.9999999999998, 991.5) rotate(0, 38, 18.5)" width="76" height="37"><text text-decoration="none" x="1.5" fill="#ffffff" font-size="10pt" font-family="lt_regular"  y="14">Update&#160;</text><text text-decoration="none" x="46.5" fill="#ffffff" font-size="10pt" font-family="lt_regular"  y="14">book&#160;</text><text text-decoration="none" x="20.5" fill="#ffffff" font-size="10pt" font-family="lt_regular"  y="36">status</text><text text-decoration="none" x="55.5" fill="#4b4b4b" font-size="10pt" font-family="noto_regular"  y="36"></text></g></g><g id="zjyZnBw8xfb"><g transform="translate(1140 299.99999999999994) rotate(180)"><ellipse cx="10" cy="10" rx="10" ry="10" fill="rgb(45,148,228)" stroke="#2D94E4" stroke-width="2" stroke-linecap="round" stroke-linejoin="round" stroke-dasharray="0 0"/></g></g><g id="noib9SWJ7p0"><mask id="495cd" x="731" y="296" width="28" height="98" maskUnits="userSpaceOnUse"><rect x="731" y="296" width="28" height="98" fill="white" /><rect x="715.5" y="332.5" width="59" height="25" fill="black" /></mask><g mask="url(#495cd)"><path d="M 745,310 L 745,380" fill="none" stroke="#7E7E7E" stroke-width="2" stroke-linecap="round" stroke-linejoin="round"/><path d="M 745,380 L 750.75,371.30434782608694 L 739.25,371.30434782608694 Z" fill="rgb(126,126,126)" stroke="#7E7E7E" stroke-width="2" stroke-linecap="round" stroke-linejoin="round"/></g><g transform="translate(718.5, 335.5)" width="53" height="19"><text text-decoration="none" x="1" fill="#4b4b4b" font-size="10pt" font-family="lt_regular"  y="17">Available</text><text text-decoration="none" x="52" fill="#4b4b4b" font-size="10pt" font-family="noto_regular"  y="17"></text></g></g><g id="tIuL2ksL9Z5"><g><path d="M 745,420 L 745,480" fill="none" stroke="#7E7E7E" stroke-width="2" stroke-linecap="round" stroke-linejoin="round"/><path d="M 745,480 L 750.75,471.30434782608694 L 739.25,471.30434782608694 Z" fill="rgb(126,126,126)" stroke="#7E7E7E" stroke-width="2" stroke-linecap="round" stroke-linejoin="round"/></g></g><g id="SU9R9zoriRa"><mask id="34901" x="731" y="506" width="28" height="98" maskUnits="userSpaceOnUse"><rect x="731" y="506" width="28" height="98" fill="white" /><rect x="727.5" y="542.5" width="35" height="25" fill="black" /></mask><g mask="url(#34901)"><path d="M 745,520 L 745,590" fill="none" stroke="#7E7E7E" stroke-width="2" stroke-linecap="round" stroke-linejoin="round"/><path d="M 745,590 L 750.75,581.304347826087 L 739.25,581.304347826087 Z" fill="rgb(126,126,126)" stroke="#7E7E7E" stroke-width="2" stroke-linecap="round" stroke-linejoin="round"/></g><g transform="translate(730.5, 545.5)" width="29" height="19"><text text-decoration="none" x="0.5" fill="#4b4b4b" font-size="10pt" font-family="lt_regular"  y="17">Valid</text><text text-decoration="none" x="28.5" fill="#4b4b4b" font-size="10pt" font-family="noto_regular"  y="17"></text></g></g><g id="DmzexcWYpYx"><g><path d="M 745,630 L 745,656 Q 744.9999999999999,666 744.9999999999999,666.25 L 745,683" fill="none" stroke="#7E7E7E" stroke-width="2" stroke-linecap="round" stroke-linejoin="round"/><path d="M 745,683 L 750.75,674.304347826087 L 739.25,674.304347826087 Z" fill="rgb(126,126,126)" stroke="#7E7E7E" stroke-width="2" stroke-linecap="round" stroke-linejoin="round"/></g></g><g id="VqeRTJYWAo6"><mask id="2123a" x="731" y="709" width="28" height="85" maskUnits="userSpaceOnUse"><rect x="731" y="709" width="28" height="85" fill="white" /><rect x="732.9999999999998" y="738.75" width="24" height="25" fill="black" /></mask><g mask="url(#2123a)"><path d="M 745,723 L 744.9999999999999,741.25 Q 744.9999999999999,741.5 745,751 Q 744.9999999999999,761 744.9999999999999,761.25 L 745,780" fill="none" stroke="#7E7E7E" stroke-width="2" stroke-linecap="round" stroke-linejoin="round"/><path d="M 745,780 L 750.75,771.304347826087 L 739.25,771.304347826087 Z" fill="rgb(126,126,126)" stroke="#7E7E7E" stroke-width="2" stroke-linecap="round" stroke-linejoin="round"/></g><g transform="translate(735.9999999999998, 741.75)" width="18" height="19"><text text-decoration="none" x="0.5" fill="#4b4b4b" font-size="10pt" font-family="lt_regular"  y="17">No</text><text text-decoration="none" x="17.5" fill="#4b4b4b" font-size="10pt" font-family="noto_regular"  y="17"></text></g></g><g id="VoMh5O3ktQH"><g><path d="M 745,820 L 745,890" fill="none" stroke="#7E7E7E" stroke-width="2" stroke-linecap="round" stroke-linejoin="round"/><path d="M 745,890 L 750.75,881.304347826087 L 739.25,881.304347826087 Z" fill="rgb(126,126,126)" stroke="#7E7E7E" stroke-width="2" stroke-linecap="round" stroke-linejoin="round"/></g></g><g id="RjkRYvLHRX1"><g><path d="M 745,930 L 745,990" fill="none" stroke="#7E7E7E" stroke-width="2" stroke-linecap="round" stroke-linejoin="round"/><path d="M 745,990 L 750.75,981.304347826087 L 739.25,981.304347826087 Z" fill="rgb(126,126,126)" stroke="#7E7E7E" stroke-width="2" stroke-linecap="round" stroke-linejoin="round"/></g></g><g id="PnRhheMYVCK"><g transform="translate(724.9999999999998 1090)"><ellipse cx="20" cy="20" rx="20" ry="20" fill="rgb(45,148,228)" stroke="#2D94E4" stroke-width="2" stroke-linecap="round" stroke-linejoin="round" stroke-dasharray="0 0"/></g></g><g id="2kji685w4Kc"><g><path d="M 745,1030 L 744.9999999999999,1048 Q 744.9999999999999,1048.0000000000002 745,1058 Q 746,1067 746,1068 L 746,1086" fill="none" stroke="#7E7E7E" stroke-width="2" stroke-linecap="round" stroke-linejoin="round"/><path d="M 746,1086 L 751.75,1077.304347826087 L 740.25,1077.304347826087 Z" fill="rgb(126,126,126)" stroke="#7E7E7E" stroke-width="2" stroke-linecap="round" stroke-linejoin="round"/></g></g><g id="pPRwecZFnDd"><mask id="845a0" x="516" y="689" width="218" height="28" maskUnits="userSpaceOnUse"><rect x="516" y="689" width="218" height="28" fill="white" /><rect x="544.5" y="690.5" width="161" height="25" fill="black" /></mask><g mask="url(#845a0)"><path d="M 720,703 L 530,703" fill="none" stroke="#7E7E7E" stroke-width="2" stroke-linecap="round" stroke-linejoin="round"/><path d="M 530,703 L 538.695652173913,708.75 L 538.695652173913,697.25 Z" fill="rgb(126,126,126)" stroke="#7E7E7E" stroke-width="2" stroke-linecap="round" stroke-linejoin="round"/></g><g transform="translate(547.5, 693.5)" width="155" height="19"><text text-decoration="none" x="3.5" fill="#4b4b4b" font-size="10pt" font-family="lt_regular"  y="17">Maximum&#160;</text><text text-decoration="none" x="62.5" fill="#4b4b4b" font-size="10pt" font-family="lt_regular"  y="17">quota&#160;</text><text text-decoration="none" x="97.5" fill="#4b4b4b" font-size="10pt" font-family="lt_regular"  y="17">exceeded</text><text text-decoration="none" x="151.5" fill="#4b4b4b" font-size="10pt" font-family="noto_regular"  y="17"></text></g></g><g id="UiutoJGnejj"><mask id="c74e1" x="756" y="486" width="128" height="28" maskUnits="userSpaceOnUse"><rect x="756" y="486" width="128" height="28" fill="white" /><rect x="789.5" y="487.5" width="61" height="25" fill="black" /></mask><g mask="url(#c74e1)"><path d="M 770,500 L 870,500" fill="none" stroke="#7E7E7E" stroke-width="2" stroke-linecap="round" stroke-linejoin="round"/><path d="M 870,500 L 861.304347826087,494.25 L 861.304347826087,505.75 Z" fill="rgb(126,126,126)" stroke="#7E7E7E" stroke-width="2" stroke-linecap="round" stroke-linejoin="round"/></g><g transform="translate(792.5, 490.5)" width="55" height="19"><text text-decoration="none" x="2" fill="#4b4b4b" font-size="10pt" font-family="lt_regular"  y="17">Not&#160;</text><text text-decoration="none" x="27" fill="#4b4b4b" font-size="10pt" font-family="lt_regular"  y="17">valid</text><text text-decoration="none" x="53" fill="#4b4b4b" font-size="10pt" font-family="noto_regular"  y="17"></text></g></g><g id="3598gSSmc8q"><g><path d="M 1010,290 L 1110,290" fill="none" stroke="#7E7E7E" stroke-width="2" stroke-linecap="round" stroke-linejoin="round"/><path d="M 1110,290 L 1101.304347826087,284.25 L 1101.304347826087,295.75 Z" fill="rgb(126,126,126)" stroke="#7E7E7E" stroke-width="2" stroke-linecap="round" stroke-linejoin="round"/></g></g><g id="XeOFIs5ARsm"><g transform="translate(1110 270.00000000000006)"><ellipse cx="20" cy="20" rx="20" ry="20" fill="rgb(255,255,255)" stroke="#2D94E4" stroke-width="2" stroke-linecap="round" stroke-linejoin="round" stroke-dasharray="0 0"/></g></g><g id="Ggq65NnNDwB"><g transform="translate(1140 300) rotate(180)"><ellipse cx="10" cy="10" rx="10" ry="10" fill="rgb(255,255,255)" stroke="#2D94E4" stroke-width="2" stroke-linecap="round" stroke-linejoin="round" stroke-dasharray="0 0"/></g></g></svg>